<svg xmlns="http://www.w3.org/2000/svg" fill="none" viewBox="0 0 248 291"><defs><linearGradient id="a" x1="0" x2="1" y1="0" y2="1" gradientUnits="objectBoundingBox"><stop offset="0" stop-color="red"><animate attributeName="stop-color" dur="20s" repeatCount="indefinite" values="red;purple;blue;red;"/></stop><stop offset=".5" stop-color="purple"><animate attributeName="stop-color" dur="20s" repeatCount="indefinite" values="purple;blue;red;purple;"/></stop><stop offset="1" stop-color="#00f"><animate attributeName="stop-color" dur="20s" repeatCount="indefinite" values="blue;red;purple;blue;"/></stop><animateTransform attributeName="gradientTransform" dur="10s" from="0 .5 .5" repeatCount="indefinite" to="360 .5 .5" type="rotate"/></linearGradient><linearGradient id="overlayGradientA" x1="62" x2="62" y1="42.225" y2="290.225" gradientUnits="userSpaceOnUse"><stop offset=".34" stop-opacity=".5"/><stop offset="1" stop-color="#fff" stop-opacity="0"/></linearGradient><linearGradient id="overlayGradientB" x1="186" x2="186" y1="0" y2="248" gradientUnits="userSpaceOnUse"><stop stop-color="#fff" stop-opacity="0"/><stop offset=".695" stop-opacity=".5"/></linearGradient></defs><path fill="url(#a)" d="M0 166.225C0 234.709 55.5167 290.225 124 290.225V42.2253C55.5167 42.2253 0 97.742 0 166.225Z M248 124C248 192.483 192.483 248 124 248V0C192.483 0 248 55.5167 248 124Z"/><path fill="url(#overlayGradientA)" d="M0 166.225C0 234.709 55.5167 290.225 124 290.225V42.2253C55.5167 42.2253 0 97.742 0 166.225Z"/><path fill="url(#overlayGradientB)" d="M248 124C248 192.483 192.483 248 124 248V0C192.483 0 248 55.5167 248 124Z"/><circle cx="124" cy="147" r="50" fill="#fff"/></svg>